<?xml version="1.0" standalone="no"?>
<!DOCTYPE svg PUBLIC "-//W3C//DTD SVG 20010904//EN"
 "http://www.w3.org/TR/2001/REC-SVG-20010904/DTD/svg10.dtd">
<svg version="1.0" xmlns="http://www.w3.org/2000/svg"
 width="200.000000pt" height="200.000000pt" viewBox="0 0 200.000000 200.000000"
 preserveAspectRatio="xMidYMid meet">

<g transform="translate(0.000000,200.000000) scale(0.100000,-0.100000)"
fill="#0044ee" stroke="none">
<path d="M740 1961 c-351 -96 -618 -373 -711 -737 -31 -124 -31 -321 1 -449
42 -169 121 -320 226 -434 38 -41 56 -53 79 -53 31 0 65 32 65 61 0 10 -27 51
-60 92 -174 216 -241 485 -185 751 35 168 153 359 295 475 121 99 348 192 473
193 52 0 89 74 55 108 -18 18 -162 14 -238 -7z"/>
<path d="M1235 1675 c-45 -44 -29 -81 53 -125 153 -81 260 -213 313 -386 16
-51 26 -67 46 -75 31 -12 54 -5 79 22 18 19 18 23 1 85 -52 201 -211 396 -389
479 -66 31 -73 31 -103 0z"/>
<path d="M612 1643 c-306 -186 -432 -544 -313 -889 66 -194 199 -342 384 -430
111 -52 186 -68 317 -68 180 0 314 46 468 160 85 64 149 142 198 239 30 60 33
75 25 98 -13 32 -52 50 -84 38 -13 -5 -38 -38 -62 -82 -47 -86 -145 -190 -226
-237 -253 -148 -562 -104 -766 111 -117 123 -167 257 -165 435 3 208 107 392
287 511 63 42 70 50 73 83 2 28 -2 40 -20 52 -33 23 -47 20 -116 -21z"/>
<path d="M881 1484 c-172 -46 -322 -197 -360 -365 -16 -66 -13 -188 5 -250 33
-111 112 -220 211 -288 17 -12 62 -33 100 -48 87 -34 227 -38 313 -9 138 46
245 141 308 273 34 72 37 86 40 183 5 125 -15 197 -81 299 -111 171 -338 258
-536 205z m216 -186 c57 -58 56 -151 -4 -198 l-24 -19 40 -162 c36 -149 38
-165 25 -191 -37 -72 -169 -86 -241 -24 -35 31 -34 54 11 235 l36 143 -24 19
c-50 39 -60 135 -19 181 61 69 141 75 200 16z"/>
<path d="M1833 1388 c-29 -36 -33 -56 -18 -91 53 -127 65 -356 26 -502 -61
-229 -219 -434 -418 -542 -97 -53 -178 -80 -290 -99 -97 -15 -116 -28 -116
-75 0 -50 24 -62 113 -56 205 15 412 117 580 286 256 258 350 625 249 972 -24
83 -51 119 -89 119 -15 0 -32 -6 -37 -12z"/>
</g>
</svg>
