<svg viewBox="0 0 40 40" version="1.1" xmlns="http://www.w3.org/2000/svg" xmlns:xlink="http://www.w3.org/1999/xlink">
   <title>Curiosity Stream Icon</title>
         <g id="curiosity-stream®icon" transform="translate(0.000000, 0.000000)">
            <g id="icon-circle">
               <path d="M19.8015902,0.423492063 C8.86551128,0.423492063 0,9.28253968 0,20.2114286 C0,31.1403175 8.86551128,40 19.8015902,40 C30.7376692,40 39.6025451,31.1403175 39.6025451,20.2114286 C39.6025451,9.28253968 30.7376692,0.423492063 19.8015902,0.423492063" id="Fill-1" fill="#FBA60B" mask="url(#mask-2)"></path>
            </g>
            <g id="icon-inner">
                <path d="M19.7704586,33.2565079 C18.7240564,33.2565079 17.8771504,32.4101587 17.8771504,31.3657143 C17.8771504,30.3187302 18.7240564,29.472381 19.7704586,29.472381 C20.8168609,29.472381 21.6650376,30.3187302 21.6650376,31.3657143 C21.6650376,32.4101587 20.8168609,33.2565079 19.7704586,33.2565079" id="Fill-4" fill="#FFFFFE"></path>
                <path d="M24.9834098,20.3288889 C24.9834098,22.3974603 23.5354737,24.1853968 21.5176391,24.8177778 L21.5176391,28.3295238 L18.0486917,28.3295238 L18.0486917,24.8177778 C16.0302218,24.1853968 14.6197707,22.3974603 14.6197707,20.3288889 L14.6197707,9.18285714 L18.0486917,9.18285714 L18.0486917,20.3288889 C18.0486917,21.2044444 18.849218,21.9073016 19.8022256,21.9073016 C20.7545977,21.9073016 21.5176391,21.2044444 21.5176391,20.3288889 L21.5176391,9.18285714 L24.9834098,9.18285714 L24.9834098,20.3288889" id="Fill-5" fill="#FFFFFE"></path>
            </g>
         </g>
</svg>